Coordinates
version=1
nRows=6
nColumns=63
inDegrees=yes

Units are S.I. units (second, meters, Newtons, ...)
If the header above contains a line with 'inDegrees', this indicates whether rotational values are in degrees (yes) or radians (no).

endheader
time	pelvis_tilt	pelvis_list	pelvis_rotation	pelvis_tx	pelvis_ty	pelvis_tz	hip_flexion_r	hip_adduction_r	hip_rotation_r	knee_angle_r	knee_angle_r_beta	ankle_angle_r	subtalar_angle_r	mtp_angle_r	hip_flexion_l	hip_adduction_l	hip_rotation_l	knee_angle_l	knee_angle_l_beta	ankle_angle_l	subtalar_angle_l	mtp_angle_l	L5_S1_Flex_Ext	L5_S1_Lat_Bending	L5_S1_axial_rotation	L4_L5_Flex_Ext	L4_L5_Lat_Bending	L4_L5_axial_rotation	L3_L4_Flex_Ext	L3_L4_Lat_Bending	L3_L4_axial_rotation	L2_L3_Flex_Ext	L2_L3_Lat_Bending	L2_L3_axial_rotation	L1_L2_Flex_Ext	L1_L2_Lat_Bending	L1_L2_axial_rotation	L1_T12_Flex_Ext	L1_T12_Lat_Bending	L1_T12_axial_rotation	Abs_r3	Abs_r2	Abs_r1	Abs_t1	Abs_t2	neck_flexion	neck_bending	neck_rotation	arm_flex_r	arm_add_r	arm_rot_r	elbow_flex_r	pro_sup_r	wrist_flex_r	wrist_dev_r	arm_flex_l	arm_add_l	arm_rot_l	elbow_flex_l	pro_sup_l	wrist_flex_l	wrist_dev_l
      0.00000000	      4.65311413	     -4.58029236	     91.84394461	      0.31012827	      1.02658497	      0.45657852	      4.90163949	     -2.50525044	    -17.20941897	     11.26866633	      0.19667533	     27.13992900	     15.97383429	      0.00000000	      4.38682764	      1.01399568	      8.92389956	      6.57619992	      0.11477634	     21.01267845	    -16.68593623	      0.00000000	      0.23056700	      0.30387368	     -0.61939255	      0.42818597	      0.40415199	     -0.65810458	      0.37879852	      0.73883846	     -0.65810458	      0.26351502	      0.73883846	     -0.54196848	      0.21410451	      0.61965920	     -0.50325645	      0.13174598	      0.47070033	     -0.46454441	      1.64691700	      3.43747981	     -3.44487554	      0.00000000	      0.00000000	     28.13410060	      3.08109012	      6.69073685	     16.97211482	     -6.45525867	     81.25090755	     39.13514591	     89.10796004	    -16.20631051	    -10.32201093	      8.41181110	     -7.80135129	     45.87185283	     40.96907764	     66.69470705	      2.77331642	     -3.46038240
      0.01666667	      4.66049993	     -4.46621968	     91.47366886	      0.31032107	      1.02739634	      0.45504583	      4.59894338	     -2.36647094	    -15.57494926	     10.77116859	      0.18799236	     27.59867944	     15.60195111	      0.00000000	      3.89463263	      0.97656322	      8.87916370	      6.04922154	      0.10557883	     20.59689372	    -17.07965671	      0.00000000	      0.21059142	      0.32156520	     -0.52481286	      0.39108932	      0.42768172	     -0.55761367	      0.34598064	      0.78185364	     -0.55761367	      0.24068493	      0.78185364	     -0.45921126	      0.19555519	      0.65573576	     -0.42641045	      0.12033194	      0.49810450	     -0.39360965	      1.50423344	      3.63760990	     -2.91885171	      0.00000000	      0.00000000	     28.08641774	      3.52014330	      7.36924773	     17.96360148	     -6.52658208	     83.04429469	     38.88532881	     89.09805938	    -14.18063824	     -9.55183971	     10.99006807	     -8.11394790	     52.90936760	     39.28354490	     59.43968622	      2.51960048	     -5.61303789
      0.03333333	      4.61979599	     -4.48040875	     91.33647618	      0.31022111	      1.02770641	      0.45350280	      4.36628141	     -2.37326173	    -14.89556827	     10.33283429	      0.18034198	     27.91027381	     15.81650687	      0.00000000	      3.60272469	      0.99553079	      8.91183632	      5.60127852	      0.09776075	     20.69191030	    -16.97056384	      0.00000000	      0.21683065	      0.32618087	     -0.49367231	      0.40267620	      0.43382056	     -0.52452682	      0.35623107	      0.79307618	     -0.52452682	      0.24781575	      0.79307618	     -0.43196327	      0.20134894	      0.66514804	     -0.40110875	      0.12389703	      0.50525418	     -0.37025423	      1.54879963	      3.68982329	     -2.74565726	      0.00000000	      0.00000000	     28.03799387	      3.91989363	      7.74223151	     18.42937989	     -6.48696236	     84.25784171	     38.63542970	     89.11645221	    -13.21756486	     -9.16469152	     11.64554037	     -7.89955262	     54.13599222	     38.57401453	     59.23879110	      2.96246246	     -5.37261105
      0.05000000	      4.51893660	     -4.25319087	     90.90697150	      0.31089712	      1.02820773	      0.45289043	      4.07987328	     -2.36569345	    -13.41081551	     10.16805901	      0.17746611	     28.09654621	     14.92740902	      0.00000000	      3.10077659	      1.04958298	      8.36911311	      5.11091743	      0.08920234	     20.75052101	    -16.99638277	      0.00000000	      0.17361962	      0.32117427	     -0.40188410	      0.32242900	      0.42716178	     -0.42700186	      0.28523967	      0.78090312	     -0.42700186	      0.19842986	      0.78090312	     -0.35164859	      0.16122318	      0.65493857	     -0.32653083	      0.09920625	      0.49749894	     -0.30141308	      1.24014758	      3.63318758	     -2.23515881	      0.00000000	      0.00000000	     27.98747786	      4.27556715	      8.24313889	     18.95849678	     -6.23657147	     85.72485686	     38.19046551	     89.09262275	    -13.44305379	     -8.92817672	     13.58256131	     -8.46848840	     60.84064607	     37.98065938	     51.80267038	      2.92528838	     -7.68687532
      0.06666667	      4.47018126	     -4.14703385	     90.87756267	      0.31102439	      1.02834708	      0.45215471	      3.78358754	     -2.38243005	    -13.02047760	      9.90497965	      0.17287451	     28.15624902	     14.77682507	      0.00000000	      2.89013432	      1.07379878	      7.94949512	      4.92572164	      0.08597006	     21.27412008	    -16.46918609	      0.00000000	      0.15907853	      0.31648938	     -0.40182814	      0.29542474	      0.42093088	     -0.42694239	      0.26135012	      0.76951229	     -0.42694239	      0.18181085	      0.76951229	     -0.35159962	      0.14772032	      0.64538515	     -0.32648536	      0.09089747	      0.49024205	     -0.30137110	      1.13628204	      3.58019119	     -2.23484755	      0.00000000	      0.00000000	     27.93994996	      4.38561442	      8.33992076	     18.92305460	     -6.06769180	     86.01289257	     37.97448866	     89.12447545	    -13.57970725	     -8.65168070	     13.62584834	     -8.54235863	     61.25792273	     38.00840689	     51.93054333	      3.20340721	     -7.51475986
      0.08333333	      4.24327427	     -4.07529244	     90.45267188	      0.31162064	      1.02839989	      0.45181532	      3.73810889	     -2.62221939	    -12.43108977	      9.98062611	      0.17419479	     28.34575194	     14.76392946	      0.00000000	      2.55386252	      1.26643631	      7.58203434	      4.39253871	      0.07666426	     21.50430388	    -16.41182853	      0.00000000	      0.14696461	      0.29043439	     -0.31770173	      0.27292798	      0.38627774	     -0.33755809	      0.24144816	      0.70616218	     -0.33755809	      0.16796585	      0.70616218	     -0.27798901	      0.13647134	      0.59225381	     -0.25813266	      0.08397558	      0.44988287	     -0.23827630	      1.04975352	      3.28545192	     -1.76696171	      0.00000000	      0.00000000	     27.89761847	      4.43692884	      8.23698913	     19.14401922	     -5.66664187	     87.54945403	     37.42108085	     89.09817792	    -15.47221312	     -8.80303184	     13.74782062	     -8.67179963	     62.01318368	     37.89513491	     52.18337851	      4.11490521	     -7.75159576
